<?xml version="1.0" standalone="no"?>
<!DOCTYPE svg PUBLIC "-//W3C//DTD SVG 20010904//EN"
 "http://www.w3.org/TR/2001/REC-SVG-20010904/DTD/svg10.dtd">
<svg version="1.0" xmlns="http://www.w3.org/2000/svg"
 width="400.000000pt" height="200.000000pt" viewBox="0 0 400.000000 200.000000"
 preserveAspectRatio="xMidYMid meet">

<g transform="translate(0.000000,200.000000) scale(0.100000,-0.100000)"
fill="#000000" stroke="none">
<path d="M0 1165 l0 -815 750 0 750 0 0 35 0 35 -720 0 -720 0 0 750 0 750
1940 0 1940 0 0 -750 0 -750 -720 0 -720 0 0 -35 0 -35 750 0 750 0 0 815 0
815 -2000 0 -2000 0 0 -815z"/>
<path d="M1440 1385 c0 -33 2 -35 35 -35 33 0 35 2 35 35 0 33 -2 35 -35 35
-33 0 -35 -2 -35 -35z"/>
<path d="M1700 1240 l0 -180 25 0 c24 0 25 2 25 70 l0 70 33 0 c48 0 97 17
124 42 29 27 33 104 5 135 -22 27 -82 43 -154 43 l-58 0 0 -180z m158 114 c14
-10 22 -26 22 -44 0 -38 -32 -60 -87 -60 l-43 0 0 60 0 60 43 0 c23 0 53 -7
65 -16z"/>
<path d="M2180 1307 c-14 -6 -30 -18 -37 -27 -11 -13 -12 -12 -13 8 0 20 -5
22 -60 22 -57 0 -60 -1 -60 -25 0 -21 5 -25 30 -25 l30 0 0 -75 0 -75 -30 0
c-25 0 -30 -4 -30 -25 0 -25 1 -25 85 -25 84 0 85 0 85 25 0 20 -5 25 -25 25
-24 0 -25 3 -25 53 1 71 16 89 85 95 42 3 56 9 60 23 4 10 3 23 0 29 -8 13
-64 12 -95 -3z"/>
<path d="M2399 1297 c-85 -57 -69 -201 28 -238 55 -21 128 1 159 49 23 35 22
120 -2 157 -36 56 -127 71 -185 32z m128 -49 c51 -48 17 -148 -51 -148 -46 0
-76 34 -76 86 0 76 74 112 127 62z"/>
<path d="M1390 1285 c0 -21 5 -25 30 -25 l30 0 0 -75 0 -75 -30 0 c-25 0 -30
-4 -30 -25 0 -25 1 -25 85 -25 84 0 85 0 85 25 0 21 -5 25 -30 25 l-30 0 0
100 0 100 -55 0 c-52 0 -55 -1 -55 -25z"/>
<path d="M1990 615 c0 -83 4 -135 10 -135 6 0 10 52 10 135 0 83 -4 135 -10
135 -6 0 -10 -52 -10 -135z"/>
<path d="M1865 666 c-78 -37 -153 -128 -168 -204 -6 -30 -5 -32 23 -32 17 0
30 5 30 11 0 5 9 29 19 52 29 63 116 137 161 137 16 0 20 6 20 30 0 37 -17 39
-85 6z"/>
<path d="M2050 661 c0 -24 4 -31 20 -31 25 0 95 -43 126 -78 13 -15 32 -48 41
-74 15 -41 22 -48 45 -48 26 0 27 2 21 33 -19 95 -126 205 -217 222 -35 7 -36
6 -36 -24z"/>
<path d="M1890 524 c-27 -23 -60 -72 -60 -89 0 -3 12 -5 26 -5 32 0 94 63 94
96 0 31 -21 31 -60 -2z"/>
<path d="M2050 526 c0 -33 62 -96 94 -96 14 0 26 3 26 6 0 19 -46 83 -70 97
-38 23 -50 21 -50 -7z"/>
<path d="M1972 418 c-34 -34 6 -90 48 -68 35 19 20 80 -20 80 -9 0 -21 -5 -28
-12z"/>
<path d="M1640 385 c0 -13 22 -15 135 -15 113 0 135 2 135 15 0 13 -22 15
-135 15 -113 0 -135 -2 -135 -15z"/>
<path d="M2090 385 c0 -13 22 -15 135 -15 113 0 135 2 135 15 0 13 -22 15
-135 15 -113 0 -135 -2 -135 -15z"/>
<path d="M1696 313 c22 -89 96 -177 181 -214 59 -25 73 -24 73 6 0 19 -8 28
-37 40 -76 32 -142 102 -159 169 -5 21 -12 26 -35 26 -27 0 -29 -2 -23 -27z"/>
<path d="M1830 335 c0 -31 60 -98 98 -110 19 -5 22 -3 22 18 0 34 -62 97 -94
97 -14 0 -26 -2 -26 -5z"/>
<path d="M2083 303 c-32 -35 -44 -83 -22 -83 24 0 68 35 88 70 27 48 27 50 -6
49 -19 0 -39 -12 -60 -36z"/>
<path d="M2242 302 c-17 -55 -74 -117 -137 -147 -45 -21 -55 -30 -55 -50 0
-30 14 -31 74 -5 86 36 158 122 180 213 6 25 4 27 -22 27 -25 0 -30 -6 -40
-38z"/>
<path d="M1990 165 c0 -83 4 -135 10 -135 6 0 10 52 10 135 0 83 -4 135 -10
135 -6 0 -10 -52 -10 -135z"/>
</g>
</svg>
